<?xml version="1.0" encoding="UTF-8" standalone="no"?>
<!-- Created with Inkscape (http://www.inkscape.org/) -->

<svg
   xmlns:dc="http://purl.org/dc/elements/1.1/"
   xmlns:cc="http://creativecommons.org/ns#"
   xmlns:rdf="http://www.w3.org/1999/02/22-rdf-syntax-ns#"
   xmlns:svg="http://www.w3.org/2000/svg"
   xmlns="http://www.w3.org/2000/svg"
   version="1.1"
   width="400"
   height="320"
   id="svg31568">
  <metadata
     id="metadata77">
    <rdf:RDF>
      <cc:Work
         rdf:about="">
        <dc:format>image/svg+xml</dc:format>
        <dc:type
           rdf:resource="http://purl.org/dc/dcmitype/StillImage" />
        <dc:title></dc:title>
      </cc:Work>
    </rdf:RDF>
  </metadata>
  <defs
     id="defs31570" />
  <g
     id="layer4"
     style="display:inline">
    <path
       d="m 230.73,7.0022 c -3.22,0 -7.22,0.7105 -12.46,1.9826 -9.83,2.3462 -15.01,7.7322 -20,12.9032 -2.5,2.578 -4.85,5.007 -7.72,7.039 l -4.51,3.436 c -2.07,1.686 -2.38,1.933 -7.06,3.09 -12.92,3.205 -30.81,11.582 -31.56,11.929 0.18,-0.166 -1.32,0.512 -1.32,0.512 -5.14,2.016 -11.54,4.527 -19.31,9.12 -2.72,1.603 -6.26,2.957 -11.06,4.213 -5.21,1.239 -10.72,2.941 -15.47,3.073 C 87.661,63.408 74.644,61.392 61.815,59.79 l -1.75,-0.166 c -4.182,-0.396 -6.308,-0.479 -9.375,1.719 -0.938,0.214 -2.119,0.974 -3.501,2.247 -1.508,0.214 -3.829,0.776 -4.844,2.775 -4.705,1.206 -8.5,1.107 -8.594,5.205 0,3.288 3.993,4.824 7.251,6.08 1.102,1.09 3.19,2.214 6.969,2.825 1.457,0.925 3.473,1.305 5.5,1.47 2.13,1.9 7.149,4.478 18.595,4.362 13.462,-1.189 25.889,-2.065 37.254,-2.808 0.63,0.247 2.57,1.024 5.16,2.032 -3.44,1.768 -7.14,4.213 -9.63,7.963 -0.39,0.612 -1.28,1.917 -1.28,3.47 0,0.661 0.16,1.355 0.56,2.065 1.63,2.871 4.95,4.031 29.32,2.941 1.56,0.28 10.22,1.82 20.12,2.94 0,0.4 -0.12,0.73 -0.12,0.73 l 0,0.16 c 0,4.32 2.66,6.4 3.54,7.11 -0.14,-0.17 1.15,0.81 1.15,0.81 l 3.88,2.38 c 0,0 6.65,3.63 9.4,5.15 -4.98,3.8 -8.45,7.32 -9.37,12.81 -3.52,4.74 -3.9,9.58 -1.7,14.45 0,0.17 -4.08,10.41 -5.77,15.19 -0.42,-1.51 -1.07,-2.91 -2.16,-3.97 -1.64,-1.65 -4.37,-4.77 -5.07,-5.95 -1.21,-2.05 -3.15,-3.42 -5.4,-3.8 -2.48,-0.41 -5.05,0.38 -7.25,2.22 -3.8,3.15 -8.4,3.85 -15.41,2.28 -6.6,-1.52 -11.02,0.16 -13.12,4.94 -0.81,2.11 -1.31,3.81 -1.94,5.96 -2.32,-27.74 -13.692,-38.05 -23.503,-41.57 -9.964,-3.6 -20.097,-2.67 -28.502,2.6 -6.934,4.36 -12.246,11.4 -14.565,19.34 -1.154,2.13 -2.014,4.45 -2.687,6.78 -6.959,7.78 -12.699,17.34 -16.565,27.82 -4.373,9.47 -7.18,20.04 -8.031,30.38 -0.241,2.96 -0.375,5.84 -0.375,8.66 0,15.78 3.81,29.08 11.189,38.78 5.45,7.2 14.41,12.03 23.345,12.65 10.168,0.73 19.676,-2.74 28.284,-10.27 16.571,-16.57 26.613,-40.45 30.31,-61.98 2.32,-1.22 4.75,-2.74 7.16,-4.66 -0.9,2.04 -1.84,4.02 -2.62,6.07 -4.67,10.27 -7.6,21.41 -7.6,28.78 l 0,1.39 c 0.53,9.23 4.11,15.15 10.6,17.64 5.43,2.07 13.13,0.89 18.75,-2.84 2.27,-1.52 7.64,-5.48 12.97,-11.3 4,3.68 9.02,3.87 10.93,3.87 9.85,0 22.15,-8.22 31.1,-19.98 3.27,2.94 7.14,5.07 11.68,5.44 12.21,0.9 23.45,-7.16 28.8,-15.02 3.4,-5.04 5.67,-9.52 7.43,-14.29 0.96,3.17 2.42,6.19 4.78,8.47 3.2,3.17 7.57,4.83 12.26,4.68 -20.59,7.37 -91.19,32.58 -91.19,32.58 -37.55,13.43 -75.103,26.83 -112.644,40.28 -0.85,0.31 -1.615,1.07 -1.97,1.93 l -2.655,6.41 c -0.438,1.14 -0.289,2.08 0.375,3.19 1.676,2.33 3.338,4.66 5,6.99 0.57,0.83 1.531,1.32 2.531,1.37 15.322,0.23 36.599,4.68 47.755,12.57 1.33,0.95 3.126,0.75 4.248,-0.42 16.67,-15.95 34.7,-23.86 55.98,-34.04 6.87,-3.27 99.03,-41.49 154.16,-63.68 26.85,-10.73 48.03,-19.26 52.16,-21.18 5.35,-2.47 23.03,-11.88 25.91,-29.37 0.59,-2.1 0.97,-4.74 0.97,-7.44 0,-8.69 -5.27,-15.61 -14.64,-19.87 l 0,0.18 c -0.86,-4.59 -3.38,-10.77 -8.46,-20.36 -1.07,-2 -2.46,-4.23 -2.46,-6.37 0.2,-2.45 1.04,-4.81 1.7,-7.27 0.35,-1.19 -0.24,-2.32 -0.81,-3.159 -0.8,-0.842 -1.99,-1.156 -3.12,-0.875 -6.46,1.602 -12.93,3.204 -19.39,4.804 -1.09,0.38 -1.64,0.98 -2.35,1.79 -2.71,3.12 -5.6,8.42 -9.98,18.34 0,0 -0.83,1.72 -1.93,3.98 -0.17,-1.72 -0.23,-3.44 -0.66,-5.04 -2.7,-9.35 -12.25,-15.07 -21.32,-12.72 -4.16,1.07 -8.16,3.29 -11.81,6.38 1.21,-4.12 2.2,-8.28 2.63,-12.54 0.16,-1.01 0.16,-2.02 0.16,-3 0,-5.927 -2.03,-10.768 -6.01,-14.088 -4.48,-3.751 -11.32,-2.627 -14.31,-1.504 -13.8,5.254 -26.29,26.932 -32.78,43.902 l -5.19,13.73 c 0,0 -0.77,2.79 -1.57,5.63 -0.67,-2.1 -1.38,-3.95 -2.13,-5.57 -3.77,-8.44 -9.83,-11.46 -14.06,-13.03 -7.52,-2.73 -16.14,-1.32 -23.69,3.93 -2.38,1.65 -4.31,3.75 -5.87,6.03 -0.77,0.94 -1.61,2.3 -2.41,3.67 0.2,-0.45 0.17,-0.96 0.22,-1.34 0,-0.63 -0.33,-1.19 -0.68,-1.75 0.43,-0.88 0.53,-1.11 0.96,-1.97 0.23,-0.16 0.63,-0.2 0.63,-0.2 1.85,-0.79 4.64,-4.29 5.53,-5.86 0.58,-1.04 0.81,-2.12 0.81,-3.14 0,-1.03 -0.41,-1.79 -0.78,-2.6 0.17,-0.84 0.22,-1.73 0.22,-1.73 -0.4,-1.39 -1.57,-5.63 -18.19,-14.18 -0.17,-0.16 -2.51,-1.42 -4.15,-2.36 0.38,-0.26 0.96,-0.58 1.69,-0.91 0.62,-0.16 2.13,-0.31 2.13,-0.31 l 5.27,-0.56 c 44.46,-4.96 50.79,-25.925 54.57,-38.482 l 0.16,-0.529 c 0.95,-3.122 1.43,-6.575 1.43,-10.194 l 0,-1.487 -0.25,-6.377 0,-0.909 c 0,0 0.21,-3.783 0.21,-3.816 0,0.347 2.61,-3.09 2.61,-3.09 2.61,-3.205 5.64,-7.071 6.43,-10.938 1.21,-0.677 3.02,-1.652 3.02,-1.652 l 11.78,-4.758 c 1.14,-0.463 1.95,-1.537 2.05,-2.743 l 0,-0.314 c 0,-1.14 -0.53,-2.18 -1.5,-2.792 -3.83,-2.412 -5.85,-2.693 -9.82,-3.238 -0.26,0 -5.32,-0.562 -5.32,-0.562 -0.16,0 -2.09,-0.297 -3.43,-0.512 -1.08,-1.272 -2.94,-3.09 -6.53,-4.9896 -2.18,-1.173 -4.61,-1.7348 -7.85,-1.7017 z m 44.61,144.7678 0,0 c -0.64,2.84 -1.07,5.8 -1.19,8.94 -4.2,5.46 -8.19,9.68 -10.76,11.31 -0.95,0.61 -1.61,0.88 -2.14,1.09 -0.17,-0.53 -0.17,-1.1 -0.17,-1.78 0,-1.62 0.27,-3.75 0.7,-6.31 5.07,-4.2 9.53,-8.64 13.49,-13.25 z m -207.649,1.38 c 0.67,0 1.362,0.24 2.033,0.62 3.142,1.83 5.186,15.13 5.186,22.56 l -0.03,0 c -6.997,-3.04 -11.969,-11.4 -12.094,-18.3 -0.05,-1.8 0.396,-2.68 1.687,-3.88 1.006,-0.66 2.103,-1.06 3.22,-1 z m 262.749,14.66 c 1.6,3.72 5.63,5.57 8.81,6.77 -5.19,1.87 -12.38,4.45 -21.13,7.57 5.27,-4.66 9.46,-9.12 12.32,-14.34 z M 175.3,180.4 c 0.2,0 0.21,1.34 -0.17,4.69 -0.19,2.45 -0.94,4.25 -0.94,6.43 l -1.24,5.98 c -2.8,3.6 -3,4.86 -4.31,5.62 2.28,-5.37 5.83,-22.69 6.59,-22.72 z m -26.88,0.16 c -1.26,3.56 -2.16,6.13 -2.16,6.13 0,0 -4.98,14.46 -5.75,16.66 -2.56,3.83 -6.08,7.35 -8.78,9.5 0.32,-3.04 1.05,-6.41 2.44,-10.31 3.75,-8.01 9.23,-16.46 14.25,-21.98 z m 53.03,3.29 c 2.2,0.85 4.3,1.51 6.53,1.89 -0.2,1.07 -0.31,1.47 -0.66,2.24 -1.39,3.21 -3.87,6.08 -4.43,6.08 -0.48,0 -1.62,-3.9 -1.62,-8.24 0,-0.63 0.17,-1.31 0.18,-1.97 z m 81.32,0.42 c 3.74,3.28 8.38,5.17 13.92,5.65 -9.97,3.56 -20.95,7.5 -32.67,11.68 6.97,-4.35 13.72,-10.81 18.75,-17.33 z m -237.58,8.17 c 7.262,7.01 16.101,10.71 26.876,11.01 -1.164,6.31 -2.864,13.1 -5.032,19 -3.397,7.3 -7.257,12.75 -10.781,15.13 -2.587,1.74 -3.605,1.87 -6,1.37 -6.631,-1.37 -9.377,-13.91 -9.377,-25.57 0.427,-6.81 1.091,-14.44 4.314,-20.94 z"
       id="path16452"
       style="fill:#ffffff;fill-opacity:1;fill-rule:nonzero;stroke:none;display:inline" />
  </g>
  <g
     id="layer2"
     style="display:inline">
    <path
       d="m 230.35,10.224 c -2.86,0.165 -6.51,0.694 -11.27,1.85 -13.58,3.255 -17.46,12.987 -26.6,19.43 -6.95,4.957 -5.02,5.172 -12.62,7.038 -12.75,3.173 -30.97,11.714 -30.97,11.714 -5.41,2.132 -12.08,4.61 -20.41,9.501 -3.27,1.949 -7.2,3.337 -11.85,4.543 -5.21,1.371 -10.94,3.106 -16.24,3.189 l -0.696,0 C 98.148,67.324 96.542,67.224 94.882,67.076 82.864,65.886 68.037,63.457 61.597,62.929 55.703,62.4 54.872,62.004 52.158,64.201 c 0,0 -1.596,-0.165 -3.625,2.379 -0.939,0.165 -5.286,0.479 -2.343,2.66 -16.53,0.876 -6.115,4.395 -3.313,5.502 0,0 0.727,1.834 6.469,2.561 0,0 0.396,1.123 5.657,1.338 0,0 2.613,4.411 17.063,4.246 12.208,-0.71 19.881,-1.536 25.879,-2.032 4.095,-0.396 8.045,-0.446 11.905,-0.743 4.51,1.933 9.39,3.7 13.66,5.287 0,0 -10.98,2.461 -15.88,9.83 -1.87,2.842 -2.15,4.61 26.04,3.354 0,0 11.6,2.097 23.9,3.337 -1.26,2.92 -1.19,6.34 1.51,8.34 5.03,3.44 10.45,6.1 16.02,9.14 1.97,1.31 1.13,2.23 -0.28,3.27 -6.21,3.41 -8.44,7.17 -9.61,12.26 -1.01,1.46 -1.77,3.06 -2.28,4.74 -1,3.37 -0.68,6.64 0.84,9.12 -5.58,13.24 -10.51,27.92 -14.64,39.95 -1.93,5.79 -3.84,11.37 -5.5,16.06 -3.77,5.75 -9.56,10.77 -12.59,12.58 -1.18,0.67 -2.03,0.71 -2.15,0.62 -0.13,-0.16 -0.56,-0.86 -0.54,-2.81 0,-4.16 1.11,-8.95 2.88,-13.89 4.53,-9.73 10.94,-19.12 16.16,-24.42 2.12,-2.2 4.92,-7.73 4.4,-10.51 0.12,-1.68 -0.56,-3.32 -1.66,-4.41 -1.62,-1.63 -4.65,-5.01 -5.59,-6.56 -0.72,-1.22 -1.81,-2.01 -3.12,-2.25 -1.51,-0.23 -3.12,0.27 -4.57,1.51 -4.63,3.83 -10.28,4.74 -18.28,2.92 -5.01,-1.15 -7.98,-0.2 -9.34,3.08 -2.06,4.92 -3.18,8.97 -3.88,12.7 -0.89,1.11 -2.41,2.3 -3.87,3.19 0.17,-34.37 -11.615,-46.06 -21.818,-49.71 -9.002,-3.26 -18.112,-2.4 -25.629,2.31 -6.45,4.05 -11.184,10.52 -13.251,17.73 -1.242,2.26 -2.229,4.69 -2.875,7.17 -6.972,7.66 -12.579,17.13 -16.345,27.36 -4.272,9.23 -6.995,19.36 -7.844,29.52 -1.533,18.77 1.968,34.38 10.157,45.16 4.868,6.47 12.922,10.82 20.97,11.35 9.242,0.67 17.956,-2.51 25.878,-9.47 9.49,-9.29 16.92,-20.87 21.447,-32.43 3.926,-9.37 6.776,-20.18 8.12,-29.16 5.81,-2.83 11.97,-7.72 15.06,-12.82 1.2,0.33 2.47,0.49 3.72,0.52 -3.37,5.49 -6.13,11.37 -8.22,16.97 -5.11,11.24 -7.76,22.39 -7.4,28.83 0.18,2.89 0.7,11.78 8.5,14.74 4.42,1.69 11.03,0.66 15.75,-2.49 2.82,-1.89 9.14,-6.51 14.81,-13.54 3.07,5.54 8.72,5.52 10.91,5.52 9.72,0 22.43,-9.02 30.69,-21.31 2.97,4.01 7.25,6.43 12.34,6.82 10.89,0.81 21.01,-6.49 25.82,-13.6 3.12,-4.59 5.75,-9.21 7.72,-15 1.93,-3.96 3.38,-8.19 4.52,-13.56 0.19,-0.17 0.35,-0.3 0.53,-0.43 -0.56,4.41 -0.64,9.15 -0.41,12.37 0.36,3.87 2.13,7.62 4.89,10.31 2.61,2.56 6.15,3.89 10,3.75 10.44,-0.41 25.08,-12.55 33.06,-24.35 3.78,4.76 8.95,7.25 15.63,7.57 10.39,0.46 19.84,-5.85 28.88,-19.38 1.4,-2.07 2.74,-4.4 4.06,-6.88 0.43,2.98 1.8,5.82 3.75,7.79 2.43,2.41 7.3,4.99 13,4.28 9.5,-1.21 16.76,-7.27 19.9,-15.96 2.72,2.32 3.1,4.56 3.1,5.15 -2.18,2.63 -5.12,4.79 -7.75,6.41 -4.85,2.99 -11.3,5.37 -14.73,6.66 -12.86,4.77 -101.35,36.35 -179.43,64.22 -42.64,15.22 -85.874,30.7 -122.362,43.72 l -2.657,6.44 4.97,6.99 c 20.583,0.16 35.261,3.55 47.315,11.73 l 2.188,1.57 1.876,-1.97 c 12.8,-13.26 37.38,-25.09 55.58,-33.02 49.27,-21.52 101.15,-42.27 153.87,-63.53 26.8,-10.77 47.98,-19.28 52.01,-21.13 9.97,-4.6 21.88,-14 24.03,-26.9 0.57,-2.13 0.89,-4.4 0.89,-6.91 0,-7.83 -5.22,-14.07 -14.41,-17.71 -0.16,-4.82 -6.62,-17.74 -10.36,-24.27 -0.99,-2.15 -1.11,-4.97 -0.43,-7.45 l 1.29,-5.22 -19.16,4.87 c -3.29,2.2 -7.7,12.82 -10.13,18.28 -2.27,5.15 -6.08,12.67 -9.14,18.68 l -0.16,0.17 c -7.52,14.82 -12.46,20.44 -18.2,20.68 -0.52,0 -1.07,0 -1.53,-0.16 5.57,-3.57 9.28,-7.45 11.6,-10.51 3.38,-4.38 6.29,-10.09 7.66,-15.55 1.84,-5.09 2.18,-10.34 0.86,-14.88 -2.18,-7.69 -9.93,-12.38 -17.28,-10.45 -7.3,1.9 -14.09,7.56 -19.15,16 -1.07,1.77 -3.27,5.73 -5.1,11 -2.48,5.12 -5.57,13.37 -5.67,22.5 -4.05,5.39 -8.76,10.64 -12.16,12.81 -3.42,2.13 -5.16,2.05 -5.42,1.92 -0.78,-0.43 -1.45,-0.95 -1.75,-2.95 -0.37,-2.61 0,-6.01 0.69,-10.34 9.57,-7.7 17.2,-16.16 22.64,-25.16 2.95,-4.84 5.75,-10.76 7.89,-16.75 2.5,-6.07 4.07,-12.35 4.75,-18.76 0.67,-6.159 -0.98,-11.099 -4.68,-14.205 -3.07,-2.545 -8.38,-1.917 -11,-0.909 -12.53,4.742 -24.57,25.424 -30.92,41.964 -2.09,4.76 -3.84,9.4 -5.08,13.5 -1.26,4.13 -2.28,7.75 -3.23,11.45 -1.05,0.78 -2.06,1.54 -3.04,2.18 -0.56,-5.88 -2.08,-9.71 -3.61,-13.15 -3.24,-7.24 -8.2,-9.81 -12.16,-11.29 -6.5,-2.39 -14.23,-0.97 -20.87,3.69 -3.52,2.46 -5.64,5.24 -7.34,9.43 -1.93,3.69 -3.33,7.44 -3.6,11.29 -2.59,4.14 -12.18,21.56 -9.98,41.24 -3.05,4.04 -5.86,7.48 -10.09,8.84 -0.65,0.21 -2.33,0.16 -2.73,-0.29 -0.73,-0.72 -0.54,-2.41 -0.26,-3.56 2.26,-9.32 12.6,-39.61 18.68,-55.42 l 2.28,-5.95 -1.53,0.42 c 0.33,-0.71 0.44,-1.59 0.56,-2.28 0.99,-1.42 1.8,-2.98 2.28,-4.66 0.71,-0.17 1.29,-0.28 1.57,-0.4 0.74,-0.31 3,-2.77 4,-4.49 0.97,-1.75 -0.2,-3.47 -0.2,-3.47 2.54,-4.13 -15.4,-13.1 -16.64,-13.77 -5.29,-2.79 -6.08,-3.5 -6.2,-3.61 -1.61,-2.35 1.84,-4.45 4.47,-5.64 2.69,-0.39 5.38,-0.66 8.06,-0.96 42.94,-4.771 48.19,-24.283 51.94,-36.691 0.61,-2.065 1.44,-5.518 1.26,-10.508 -0.38,-10.872 -0.46,-3.833 0,-11.549 0.16,-2.594 9.71,-10.392 9.27,-15.795 0,0 4.11,-2.362 8.13,-3.998 2.19,-0.892 5.35,-2.231 8.57,-3.387 -3.12,-1.95 -5.17,-2.346 -7.58,-2.677 -3.85,-0.528 -6.56,-0.594 -11.04,-1.255 0,0 -1.12,-2.611 -6.23,-5.337 -1.75,-0.942 -3.86,-1.371 -6.76,-1.289 z m 48.18,98.036 c 0.16,3.01 -0.68,5.47 -1.79,8.03 -2.99,6.93 -7.3,14.06 -11.97,20.01 1.27,-3.85 2.57,-7.89 4.28,-11.73 2.31,-5.19 5.89,-13.78 9.48,-16.31 z m 66.38,23.48 c 0.55,1.57 1.23,3.16 1.92,4.73 -2.31,0.71 -4.18,1.67 -5.68,2.67 1.25,-2.66 2.51,-5.23 3.76,-7.4 z m -35.62,2.37 c 1.48,1.04 0.88,3.43 0.12,5.07 -1.67,3.38 -5.29,5.71 -9.96,8.13 0.16,-1.51 0.62,-3.19 1.27,-4.66 1.95,-4.36 4.19,-6.83 5.43,-7.62 0.9,-0.58 2.26,-1.54 3.14,-0.92 z M 67.723,149.97 c 12.039,-0.66 10.792,26.2 10.618,30.73 -4.194,-0.5 -7.89,-2.32 -11.213,-5.52 -4.691,-4.56 -8.448,-12.61 -7.022,-20.97 1.157,-2.1 3.169,-4.11 7.617,-4.24 z m 142.007,1.09 c 1.08,-0.19 2.22,0.19 3.19,0.87 1.98,1.37 3.19,5.69 2.84,11.57 -2.79,-0.17 -4.81,-1.72 -6.59,-3.54 -1.77,-2.26 -2.66,-4.81 -2.63,-7.19 0.88,-1 2.02,-1.52 3.19,-1.71 z m 142.81,2.23 c -0.56,0.71 -2.11,1.45 -4.21,1.45 -1.04,0 -1.93,-0.36 -2.49,-1.02 1.7,-0.73 4.34,-1.07 7.04,-0.99 -0.1,0.21 -0.1,0.26 -0.34,0.56 z m -153.93,25.99 c 4.3,2.28 9.14,3.6 13.63,3.71 -0.53,2.07 -0.84,4.22 -1.78,6 -3.78,7.12 -5.8,8.18 -8.03,8.31 -4.86,-1.98 -4.68,-13.08 -3.8,-18.02 z m -154.14,7.83 c 7.987,9.48 18.224,13.71 31.596,13.05 -1.062,7.35 -3.306,16.12 -5.967,23.34 -4.268,9.17 -10.971,20.48 -20.535,18.56 -11.382,-2.38 -13.066,-24.26 -11.468,-37.44 0.733,-6.69 2.901,-12.34 6.374,-17.51 z"
       id="path16680"
       style="fill:#000000;fill-opacity:1;stroke:none;display:inline" />
    <path
       d="m 353.37,206.93 0,-5.93 -2.11,0 0,-1.22 5.68,0 0,1.22 -2.11,0 0,5.93 z"
       id="path3840" />
    <path
       d="m 358.36,206.93 0,-7.15 2.17,0 1.29,4.89 1.28,-4.89 2.19,0 0,7.15 -1.36,0 0,-5.63 -1.42,5.63 -1.39,0 -1.42,-5.63 0,5.63 z"
       id="path3842" />
  </g>
  <g
     id="layer6"
     style="display:inline">
    <path
       d="m 206.16,96.485 c 14.09,-4.858 19.75,-13.218 23.65,-20.19 0.54,-0.958 0.94,-1.884 1.3,-2.792 4.18,-10.574 4.64,-16.059 3.47,-20.388 -0.16,-1.025 -0.53,-1.884 -0.94,-2.28 0,0 1.88,4.659 -4.91,10.128 -1.34,-0.364 -2.94,-1.008 -4.92,-2.132 0,0 3.15,-0.165 5.38,0.595 0,0 -4.08,-4.362 -10.72,-7.782 0,0 2.69,-0.462 4.38,-0.71 -1.92,-0.925 -6.13,-1.421 -11.47,-5.155 -3.3,-3.651 -2.51,-5.634 -2.51,-5.634 -2.05,3.734 -0.63,6.229 -0.63,6.229 0,0 2.43,1.867 3.31,2.742 3.19,3.09 3.37,4.065 3.37,4.065 -2.76,-2.462 -13.32,-4.659 -13.32,-4.659 l 4.2,2.627 c -4.63,-1.719 -10.61,-2.247 -10.61,-2.247 l 2.3,1.619 c -7.17,-0.347 -11.17,0.628 -13.33,1.569 -1.69,0.711 -2.2,1.24 -2.2,1.388 -0.17,0.165 -0.17,0.182 -0.17,0.182 0,0 0.43,0 1.08,-0.165 2.19,0.198 6.51,0.628 7.04,0.776 l -1.09,-1.288 c 0,0 3.46,-0.942 7.88,0.611 l -1.11,-1.173 0,-0.165 c 0.16,0 4.18,0.314 7.8,2.197 l -1.18,-1.404 -0.16,-0.166 c 0.51,0.166 9.04,2.28 11.85,5.453 -2.78,-1.388 -8.51,-3.354 -16.11,-0.711 l 1.62,-1.982 c 0,0 -4.51,0.545 -10.91,3.271 l 1.34,-1.437 c -2.4,1.04 -5.44,2.131 -7.14,4.741 -1.07,1.636 0.43,4.709 3.75,3.734 0.33,1.933 2.27,2.908 4.2,2.28 0.69,1.983 2.56,3.272 5.47,2.231 2.06,4.097 5.71,2.412 6.8,1.702 0.53,1.321 2.2,1.553 3.06,1.701 -1.72,3.734 -4.92,5.552 -8.76,6.725 -2.79,5.171 -16.67,10.045 -32.91,14.374 -7.87,1.652 -15.89,3.188 -16.32,3.519 -0.34,0.248 -0.18,0.71 0.51,0.842 0.52,0.166 5.42,1.224 8.05,1.574 0.6,0.16 1.72,0.16 2.33,0.24 0,0 -1.16,2.23 -1.15,4.45 0,2.61 2.14,4.13 2.88,4.49 l 3.44,-0.48 c -0.23,-0.71 -0.38,-1.52 0.33,-2.72 2.18,-3.75 10.55,-4.51 12.78,-4.78 7.46,-0.89 16.67,-1.37 29,-5.615 z"
       id="path16496"
       style="fill:#f1491c;fill-opacity:1;fill-rule:nonzero;stroke:none;display:inline" />
    <path
       d="m 130.19,77.848 c 1.05,-3.271 6.93,-6.295 6.93,-6.295 8.66,-10.557 28.93,-14.638 28.93,-14.638 -1.95,-2.181 -9.01,-2.677 -9.01,-2.677 0.12,-0.512 -0.13,-3.568 -0.13,-3.568 -15.62,2.28 -22.61,7.352 -27.81,10.342 -5.4,3.123 -10.16,4.048 -17.51,6.196 -1.88,0.562 -7.93,1.256 -10.81,1.536 l -0.7,0.397 5.82,1.636 -6.994,0.495 c 3.394,0.166 10.104,0.893 10.104,0.893 -0.59,0.165 -7.72,0.776 -7.72,0.776 1.55,-0.182 14.18,2.33 14.18,2.33 -0.57,0.264 -8.26,0.627 -8.26,0.627 5.56,0.166 14.02,1.95 14.02,1.95 -0.5,0.165 -7.59,1.206 -7.59,1.206 0.82,-0.281 10.81,4.345 10.81,4.345 1.16,-2.098 5.72,-5.551 5.72,-5.551"
       id="path16500"
       style="fill:#f1491c;fill-opacity:1;fill-rule:nonzero;stroke:none;display:inline" />
    <path
       d="m 56.698,77.022 c 2.827,0 28.875,1.603 46.902,1.19 0,0 -43.798,-1.702 -55.801,-2.694 0,0 5.489,1.471 8.899,1.504"
       id="path16548"
       style="fill:#f1491c;fill-opacity:1;fill-rule:nonzero;stroke:none;display:inline" />
    <path
       d="m 39.522,71.487 c 0,0 2.838,1.619 7.135,1.851 4.323,0.247 36.205,2.263 52.568,2.759 0,0 -47.687,-3.371 -59.703,-4.61"
       id="path16552"
       style="fill:#f1491c;fill-opacity:1;fill-rule:nonzero;stroke:none;display:inline" />
    <path
       d="m 93.522,70.727 c 0,0 -35.747,-3.569 -42.542,-3.238 -1.963,0.165 -1.469,0.826 -1.469,0.826 2.889,-0.314 44.011,2.412 44.011,2.412"
       id="path16556"
       style="fill:#f1491c;fill-opacity:1;fill-rule:nonzero;stroke:none;display:inline" />
    <path
       d="m 65.253,64.416 c -6.184,-0.628 -6.54,0 -6.54,0 5.907,0.264 38.13,4.626 38.13,4.626 0,0 -25.416,-3.949 -31.59,-4.593"
       id="path16560"
       style="fill:#f1491c;fill-opacity:1;fill-rule:nonzero;stroke:none;display:inline" />
    <path
       d="m 66.242,80.459 c 6.199,0.214 30.513,-0.562 30.513,-0.562 0,0 -31.616,-0.314 -37.485,-0.859 0,0 0.811,1.239 6.972,1.421"
       id="path16564"
       style="fill:#f1491c;fill-opacity:1;fill-rule:nonzero;stroke:none;display:inline" />
    <path
       d="m 94.498,69.686 c 0,0 -22.526,-2.924 -30.854,-3.75 -12.093,-1.239 -10.636,0.165 -10.636,0.165 5.033,-0.231 41.49,3.684 41.49,3.684"
       id="path16568"
       style="fill:#f1491c;fill-opacity:1;fill-rule:nonzero;stroke:none;display:inline" />
    <path
       d="m 171.57,104.15 c -6.46,1.32 -5.75,5.27 -5.75,5.27 l 2.74,-0.44 c -0.84,-2.88 3.01,-4.83 3.01,-4.83"
       id="path16668"
       style="fill:#f1491c;fill-opacity:1;fill-rule:nonzero;stroke:none;display:inline" />
    <path
       d="m 187.76,127.56 c 0,0 0.91,1.36 0.48,2.88 0,0.53 0,1.1 0,1.65 1.62,-1.64 2.86,-3.39 2.08,-4.49 0,0 4.54,-4 -22.04,-16.84 0,0 -0.84,0.18 -1.95,0.28 l 4.84,2.78 c 2.94,1.58 19.15,9.61 16.6,13.74"
       id="path16676"
       style="fill:#f1491c;fill-opacity:1;fill-rule:nonzero;stroke:none;display:inline" />
    <path
       d="m 355.19,155.04 c -1.82,1.96 -3.83,2.86 -6.89,2.86 -6.15,0 -8.76,-7.16 -4.01,-11.72 2.87,-2.71 7.76,-3.62 13.79,-2.95 0.94,5.68 -0.73,9.46 -2.89,11.81 m -47.83,-29.11 c 2.13,-1.37 4.96,-2.18 6.56,-0.85 1.73,1.42 2.08,3.75 1.47,7.17 -1.69,9.5 -7.63,15.3 -19.61,20.19 0,-12.68 7.93,-24.12 11.58,-26.51 m -87.19,40.08 c -6.39,2.1 -10.47,-0.99 -13.25,-3.83 -2.39,-2.47 -3.68,-5.74 -3.53,-9.24 0.16,-4.41 2.29,-8.54 5.55,-10.52 2.53,-1.52 5.83,-1.52 8.52,0.38 4.63,3.27 5.34,13.33 2.71,23.21 m -13.79,33.42 c -1.44,0.94 -3.31,1.26 -4.64,0.98 -7.14,-1.51 -7.77,-13.8 -6.35,-21.18 0.73,-3.94 1.37,-8.25 3.27,-11.95 6.33,4.94 14.54,6.81 20.27,5.75 -2.03,10.77 -6.9,22.69 -12.55,26.4 M 83.139,183.95 c -8.15,0.53 -13.614,-2.01 -18.228,-6.49 -5.299,-5.14 -8.595,-12.59 -8.595,-19.41 0,-6.75 2.791,-12.79 7.29,-15.78 3.396,-2.27 7.377,-2.61 11.307,-0.99 9.52,3.98 10.242,25.62 8.226,42.67 m -8.657,37.42 c -3.055,7.41 -8.088,17.12 -14.642,21.5 -3.993,2.69 -6.767,3.19 -10.912,2.31 -13.628,-2.87 -15.82,-25.81 -13.983,-40.97 1.267,-10.33 5.667,-20.82 12.182,-28.83 8.543,12.11 19.484,16.57 35.252,14.77 -0.874,9.4 -4.107,22.09 -7.897,31.22 M 277.72,100.53 c 6.28,-6.028 7.85,0.56 5.93,6.76 -4.36,13.96 -14.6,31.71 -25.24,40.12 2.8,-13.68 14.24,-42.02 19.31,-46.88 m 91.43,40 c 1.03,-4.38 -5.34,-16.55 -8.08,-21.71 -0.86,-1.62 -1.53,-2.87 -1.95,-3.75 -1.34,-2.89 -1.55,-6.18 -0.71,-9.37 l -13.18,3.28 c -2.79,3.18 -6.15,10.32 -8.96,16.7 -2.33,5.29 -6.13,12.75 -9.32,19.02 -7.17,14.15 -12.87,22.07 -20.85,22.4 -4.85,0.23 -7.38,-2.41 -10.01,-7.67 9.19,-3.62 15.91,-8.94 20.16,-14.5 5.47,-7.14 6.95,-15.3 5.27,-21.15 -1.62,-5.67 -7.49,-9.8 -13.45,-8.25 -6.54,1.72 -12.69,6.98 -17.23,14.59 -4.26,7.06 -8.43,18.18 -7.5,28.95 -3.56,5.22 -10.87,14.89 -16.48,18.39 -3.2,2.03 -6.51,3.12 -8.59,2.01 -1.83,-0.95 -2.97,-2.42 -3.38,-5.27 -0.58,-4.26 0.28,-9.78 1.96,-17.74 21.91,-16.7 32.04,-35.52 33.99,-54.04 0.46,-4.2 -0.2,-8.628 -3.57,-11.454 -1.88,-1.553 -5.98,-1.09 -7.85,-0.363 -13.05,4.957 -26.32,30.267 -31.41,46.927 -2.13,6.98 -3.43,12.19 -4.67,17.72 0,0 -7.57,6.12 -10.23,6.73 0,-8.38 -1.69,-12.91 -3.57,-17.1 -2.72,-6.08 -6.79,-8.3 -10.37,-9.62 -5.82,-2.13 -12.31,-0.63 -17.77,3.17 -3.96,2.8 -7.94,8.07 -7.05,15.32 -5.01,5.95 -9.3,16.87 -10,25.34 -0.44,5.29 -0.44,10.56 0.42,14.86 -2.63,4.87 -10.08,15.16 -16.1,16.04 -2.23,0.31 -4.37,0 -5.51,-1.42 -1.23,-1.54 -1.51,-3.67 -0.86,-6.36 2.33,-9.57 12.72,-40.05 18.82,-55.86 -1.74,0.49 -13.07,4.14 -14.97,4.67 -5.24,13.02 -13.96,40.27 -18.95,53.83 -3.88,6.74 -10.82,13 -14.7,15.28 -3.23,1.9 -7.53,2.04 -7.52,-4.9 0.13,-15.47 13.35,-37.57 22.68,-47.06 1.28,-1.34 0.83,-3.15 0.12,-3.91 -1.44,-1.44 -4.84,-5.19 -6.04,-7.21 -0.18,-0.28 -0.47,-0.62 -0.98,-0.72 -0.53,-0.17 -1.27,0.18 -2,0.81 -5.37,4.47 -12.04,5.6 -20.98,3.6 -5.11,-1.17 -5.57,0.43 -6.03,1.95 -0.43,1.52 -0.82,5.57 -1.16,7.48 -0.93,5.06 -7.25,9.52 -12.548,11.82 1.167,-29.26 -5.92,-47.22 -19.572,-52.13 -8,-2.86 -16.074,-2.26 -22.881,2.01 -7.187,4.52 -12.371,12.73 -12.865,21.65 -14.097,13.81 -21.854,33.8 -23.273,51.2 -1.472,17.96 1.826,32.85 9.518,42.97 4.514,5.98 11.878,9.67 18.673,10.15 8.365,0.61 16.301,-2.37 23.565,-8.73 15.63,-13.68 25.581,-40.85 26.556,-60.61 7.047,-2.12 16.617,-9.41 18.617,-15.57 4,2.68 9.74,1.21 15.02,0.25 -14.63,14.59 -22.8,39.98 -22.23,50.06 0.28,4.59 1.33,10 6.46,11.98 3.51,1.34 9.09,0.31 12.88,-2.21 5.65,-3.79 12.82,-10.12 17.85,-18.06 0.87,9.23 6.2,9.53 9.64,9.53 9.07,0 23.08,-10.1 30.87,-24.55 2.31,6.49 6.97,9.63 12.37,10.06 9.5,0.71 18.57,-5.68 22.98,-12.19 5.34,-7.9 8.78,-15.55 10.31,-27.76 0,0 5.83,-3.57 9.83,-6.72 -1.39,4.01 -2.39,14.14 -1.95,19.34 0.28,3.34 1.8,6.28 3.89,8.33 1.95,1.93 4.61,2.96 7.66,2.84 10.21,-0.43 26.44,-14.55 33.18,-27.26 3.78,7.7 9.43,10.16 15.79,10.48 9.39,0.41 17.8,-5.54 26.09,-17.98 4.08,-6.05 7.83,-14.49 11.24,-21.74 3.68,-8.1 7.36,-16.29 10.93,-19.7 -0.16,5.64 6.28,17.57 8.56,20.89 -15.1,-0.99 -20.7,7.88 -21,12.73 -0.2,3.28 1.22,6.55 2.96,8.25 1.87,1.87 5.82,3.95 10.38,3.37 8.78,-1.12 16.8,-7.45 18.58,-17.86 6.74,3.4 8.23,8.08 8.16,10.42 -0.24,7.26 -7.05,12.26 -12.14,15.42 -5.1,3.14 -11.75,5.62 -15.32,6.94 -12.9,4.76 -101.37,36.35 -179.42,64.2 -56.54,20.19 -106.146,37.89 -118.328,42.3 l 1.686,2.35 c 25.415,1.35 36.609,4.64 47.392,12.16 14.02,-14.61 36.48,-24.23 56.01,-33.46 7.44,-3.57 100.22,-42 154.53,-63.81 26.75,-10.74 47.92,-19.28 51.85,-21.06 10.59,-4.9 20.4,-11.26 20.4,-24.42 0,-8.55 -7.33,-13.25 -14.27,-15.52"
       id="path16712"
       style="fill:#f1491c;fill-opacity:1;fill-rule:nonzero;stroke:none;display:inline" />
    <path
       d="m 173.88,143.29 c 4.46,0 9.25,-4.11 10.74,-9.22 1.52,-5.05 -0.89,-9.17 -5.35,-9.17 -4.45,0 -9.27,4.12 -10.78,9.17 -1.48,5.11 0.93,9.22 5.39,9.22"
       id="path16716"
       style="fill:#f1491c;fill-opacity:1;fill-rule:nonzero;stroke:none;display:inline" />
  </g>
  <g
     id="layer7"
     style="display:inline">
    <path
       d="m 164,64.862 c -2.51,0.628 -6,1.834 -7.73,3.965 0,0 5.32,2.445 16.62,-0.793 -10.48,2.743 -15.37,0.463 -15.37,0.463 1.47,-1.801 4.15,-2.941 6.48,-3.635 z"
       id="path16508"
       style="fill:#b0b7bb;fill-opacity:1;fill-rule:nonzero;stroke:none;display:inline" />
    <path
       d="m 163.29,72.511 c -11.78,1.289 -17.62,0 -17.62,0 1.27,-1.718 2.5,-2.18 3.75,-2.94 -1.58,0.644 -3.86,1.883 -4.95,3.535 0,0 5.64,1.289 17.61,0 -1.96,1.074 -3.48,2.462 -3.48,2.462 12.24,1.553 20.98,-2.049 23.24,-3.123 -3.5,1.355 -11.3,3.85 -22.07,2.561 0,0 1.62,-1.404 3.52,-2.495 z"
       id="path16512"
       style="fill:#b0b7bb;fill-opacity:1;fill-rule:nonzero;stroke:none;display:inline" />
    <path
       d="m 173.6,78.757 c 6.3,-0.142 11.71,-1.861 12.68,-5.128 -1.84,3.532 -8.56,4.729 -12.68,5.128 z"
       id="path16516"
       style="fill:#b0b7bb;fill-opacity:1;fill-rule:nonzero;stroke:none;display:inline" />
    <path
       d="m 190.75,75.37 c -2.27,3.866 -6.83,5.336 -10.25,5.667 3.11,0.165 8.17,-0.909 10.25,-5.667 z"
       id="path16520"
       style="fill:#b0b7bb;fill-opacity:1;fill-rule:nonzero;stroke:none;display:inline" />
    <path
       d="m 196.15,76.559 c -1.84,3.784 -5.55,6.477 -9.9,5.998 3.28,0.05 7.01,-1.701 9.9,-5.998 z"
       id="path16524"
       style="fill:#b0b7bb;fill-opacity:1;fill-rule:nonzero;stroke:none;display:inline" />
    <path
       d="m 143.34,90.058 c -12.08,1.9 -16.96,0.297 -16.96,0.297 0,0 0.44,-0.661 1.41,-1.338 -1.64,0.859 -2.83,2.148 -2.83,2.148 0,0 4.96,1.338 17.04,-0.562 20.73,-3.271 28.26,-6.477 30.21,-7.468 -3.19,1.371 -11.25,4.147 -28.87,6.923"
       id="path16528"
       style="fill:#b0b7bb;fill-opacity:1;fill-rule:nonzero;stroke:none;display:inline" />
    <path
       d="m 139.65,77.088 c -0.77,0.413 -2.41,1.404 -3.37,2.792 0,0 4.71,2.082 18.61,-0.396 -13.32,2.197 -17.4,-0.182 -17.4,-0.182 0.6,-0.925 1.41,-1.652 2.16,-2.214 z"
       id="path16532"
       style="fill:#b0b7bb;fill-opacity:1;fill-rule:nonzero;stroke:none;display:inline" />
    <path
       d="m 208.97,73.486 c 0.84,-0.215 1.99,-0.707 3.81,-2.573 3.02,-3.09 3.58,-4.726 4.71,-6.568 -1.04,1.326 -3.24,4.026 -4.93,5.548 -1.93,1.737 -2.99,2.4 -4.26,2.846 -3.14,7.575 -9.3,9.091 -9.62,9.163 -1.14,3.482 -13.26,8.019 -29.29,11.878 11.35,-2.018 28.94,-6.977 29.93,-11.025 2.32,-0.512 7.42,-3.255 9.65,-9.269 z"
       id="path16540"
       style="fill:#b0b7bb;fill-opacity:1;fill-rule:nonzero;stroke:none;display:inline" />
    <path
       d="m 203.67,71.95 c 3.35,-2.148 6.25,-6.624 7.19,-8.321 -2.74,3.598 -5.79,6.404 -8.46,7.924 -3.18,1.818 -5.24,0.529 -6.38,-1.305 0.46,1.784 3.09,4.61 7.65,1.702 z"
       id="path16572"
       style="fill:#b0b7bb;fill-opacity:1;fill-rule:nonzero;stroke:none;display:inline" />
    <path
       d="m 183.18,65.362 c 0.66,0.562 1.29,1.02 3.17,0.706 1.09,-0.264 3.52,-1.735 4.83,-2.759 0.92,-0.727 2,-1.768 2.97,-2.941 -1.7,1.751 -3.5,2.954 -4.21,3.416 -2.21,1.422 -3.52,1.623 -3.82,1.673 -2.18,0.38 -3.45,-0.715 -3.75,-1.805 0,0.545 0.28,1.231 0.81,1.71 z"
       id="path16580"
       style="fill:#b0b7bb;fill-opacity:1;fill-rule:nonzero;stroke:none;display:inline" />
    <path
       d="m 198.65,61.821 c -2.93,3.118 -5.49,5.33 -8.2,5.866 -1.61,0.318 -2.92,0.138 -4.01,-1.712 0.16,0.694 0.56,1.712 1.8,2.29 0.61,0.248 2.26,0.413 3.5,-0.297 2.15,-1.239 5.16,-3.355 6.91,-6.147 z"
       id="path16584"
       style="fill:#b0b7bb;fill-opacity:1;fill-rule:nonzero;stroke:none;display:inline" />
    <path
       d="m 239.83,16.486 1.48,3.8 c 0,0 -1.57,1.784 -3.42,5.089 0,0 11.02,-4.015 21.74,-4.974 0,0 -0.71,-0.413 -1.46,-0.611 -1.75,-0.462 -7.27,-1.421 -13.68,-1.454 -0.66,0 -1.7,-0.429 -2.46,-0.908 -1.34,-0.843 -2.2,-0.942 -2.2,-0.942 z m 3.82,3.073 c 1.14,0 2.43,0.165 3.4,0.248 l -4.92,1.454 c 0,0 -0.92,-1.702 1.52,-1.702 z"
       id="path16596"
       style="fill:#b0b7bb;fill-opacity:1;fill-rule:nonzero;stroke:none;display:inline" />
    <path
       d="m 242.15,26.25 c 0,0 -0.43,1.785 -0.5,2.858 3.55,-2.544 9.83,-5.567 16.97,-8.079 -7.34,1.702 -13.6,3.255 -20.24,5.634 1.31,-0.165 3.77,-0.413 3.77,-0.413 z"
       id="path16600"
       style="fill:#b0b7bb;fill-opacity:1;fill-rule:nonzero;stroke:none;display:inline" />
    <path
       d="m 231.42,23.937 c 0.3,-0.529 0,-0.595 -0.28,-0.165 -0.92,1.074 -2.38,1.619 -3.65,1.702 -1.6,0.165 -2.89,-1.405 -2.94,-3.007 -0.16,-3.189 2.83,-4.164 4.76,-3.189 1.21,0.611 1.7,1.256 2.41,2.396 0.84,0.165 1.77,-0.166 2.28,-0.265 -0.79,-0.925 -3.05,-3.04 -5.35,-3.221 -4.68,-0.727 -5.65,4.361 -5.65,4.361 0.87,2.941 3.01,3.933 4.31,3.916 2.35,0 3.67,-1.85 4.11,-2.561 z"
       id="path16612"
       style="fill:#b0b7bb;fill-opacity:1;fill-rule:nonzero;stroke:none;display:inline" />
    <path
       d="m 190.55,67.984 c 0.55,1.768 1.64,2.793 3.29,2.908 1.09,0 2.41,-0.214 3.52,-0.925 2.97,-1.966 6.16,-4.89 7.75,-7.022 -2.7,2.859 -5.06,4.478 -7.79,6.179 -3.63,2.281 -5.81,0.612 -6.77,-1.14 z"
       id="path16592"
       style="fill:#b0b7bb;fill-opacity:1;fill-rule:nonzero;stroke:none;display:inline" />
    <path
       d="m 206,73.932 c 0.1,-0.24 0.1,-0.307 0.27,-0.712 -1.78,0.109 -3.28,-0.639 -3.7,-1.192 0.5,1.454 2.5,1.772 3.43,1.904 z"
       id="path16544"
       style="fill:#b0b7bb;fill-opacity:1;fill-rule:nonzero;stroke:none;display:inline" />
    <path
       d="m 130.99,84.919 c 0.26,-0.846 0.98,-1.512 1.71,-2.263 -0.92,0.661 -2.25,1.784 -2.57,2.875 0.82,0.604 6.85,2.065 36.41,-4.461 -10.68,2.164 -27.05,5.343 -35.55,3.849 z"
       id="path16536"
       style="fill:#b0b7bb;fill-opacity:1;fill-rule:nonzero;stroke:none;display:inline" />
  </g>
  <g
     id="layer8"
     style="display:inline">
    <path
       d="m 228.83,22.202 1.06,0 c 0,0 -0.28,-2.081 -2.65,-1.883 0,0 1.46,0.165 1.59,1.883"
       id="path16608"
       style="fill:#ffffff;fill-opacity:1;fill-rule:nonzero;stroke:none;display:inline" />
    <path
       d="m 241.12,21.707 c 0,0 -1.09,1.437 -1.6,2.412 0,0 8.06,-2.974 16.64,-4.048 -5.17,0.165 -7.01,-0.33 -15.04,1.636 z"
       id="path16616"
       style="fill:#ffffff;fill-opacity:1;fill-rule:nonzero;stroke:none;display:inline" />
    <path
       d="m 259.64,20.418 c 0,0 -0.72,-0.446 -1.47,-0.628 -0.43,-0.165 -5.81,-1.404 -13.69,-1.503 0,0 -1.42,-0.248 -2.75,-1.107 -1.3,-0.843 -1.91,-0.694 -1.91,-0.694 l 0.49,1.14 c 0,0 1.82,1.867 4.45,1.553 2.48,-0.314 9.8,-0.248 14.88,1.239 z"
       id="path16620"
       style="fill:#ffffff;fill-opacity:1;fill-rule:nonzero;stroke:none;display:inline" />
    <path
       d="m 168.11,63.937 c 0,0 -1.88,0.264 -4.11,0.925 -2.33,0.694 -5.04,1.834 -6.51,3.635 0,0 4.94,2.28 15.4,-0.463 0.97,-0.264 2,-0.529 3.07,-0.909 0,0 -11.98,2.726 -15.94,0.876 0,0 1.65,-2.23 8.09,-4.064"
       id="path16624"
       style="fill:#ffffff;fill-opacity:1;fill-rule:nonzero;stroke:none;display:inline" />
    <path
       d="m 162.38,74.279 3.34,-2.726 c 0,0 -14.04,1.999 -16.84,-0.231 0,0 0.76,-1.388 3.3,-2.842 0,0 -1.27,0.364 -2.71,1.058 -1.42,0.693 -3.03,1.668 -3.88,3.007 0,0 5.64,1.272 17.62,0 -1.95,1.057 -3.49,2.478 -3.49,2.478 10.74,1.355 18.8,-1.206 22.16,-2.578 1.1,-0.462 1.7,-0.743 1.7,-0.743 -14.39,4.081 -21.2,2.561 -21.2,2.561"
       id="path16628"
       style="fill:#ffffff;fill-opacity:1;fill-rule:nonzero;stroke:none;display:inline" />
    <path
       d="m 190.76,75.337 c -2.21,2.131 -4.87,4.758 -10.34,5.7 3.52,-0.281 7.85,-1.388 10.34,-5.7 z"
       id="path16636"
       style="fill:#ffffff;fill-opacity:1;fill-rule:nonzero;stroke:none;display:inline" />
    <path
       d="m 196.15,76.51 c -3.12,2.676 -5.56,5.071 -9.93,6.063 3.75,0.166 7.77,-2.444 9.93,-6.063 z"
       id="path16640"
       style="fill:#ffffff;fill-opacity:1;fill-rule:nonzero;stroke:none;display:inline" />
    <path
       d="m 126.22,90.388 c 0,0 5.04,1.57 17.12,-0.33 17.62,-2.792 25.67,-5.552 28.89,-6.923 1.32,-0.578 1.8,-0.909 1.8,-0.909 -30.33,9.533 -45.63,7.336 -45.63,7.336 0,-0.71 2.04,-1.9 2.04,-1.9 -0.99,0.281 -1.91,0.81 -2.65,1.355 -0.96,0.694 -1.57,1.371 -1.57,1.371"
       id="path16644"
       style="fill:#ffffff;fill-opacity:1;fill-rule:nonzero;stroke:none;display:inline" />
    <path
       d="m 141.24,76.08 c 0,0 -0.72,0.364 -1.57,1.008 -0.75,0.545 -1.62,1.305 -2.22,2.23 0,0 4.13,2.413 17.43,0.166 2.53,-0.413 5.37,-1.025 8.61,-1.834 0,0 -19.39,3.155 -23.35,0.809 0,0 -0.71,-0.776 1.1,-2.379"
       id="path16648"
       style="fill:#ffffff;fill-opacity:1;fill-rule:nonzero;stroke:none;display:inline" />
    <path
       d="m 171.98,78.889 0,0 c 3.63,-0.243 12.63,-1.177 14.47,-5.601 -3.46,3.057 -9.05,5.072 -14.49,5.601"
       id="path16672"
       style="fill:#ffffff;fill-opacity:1;fill-rule:nonzero;stroke:none;display:inline" />
    <path
       d="m 168.56,80.657 c 0,0 -40.36,7.022 -34.16,0.677 0,0 -0.95,0.595 -1.85,1.438 -0.69,0.627 -1.38,1.404 -1.58,2.164 0.96,0.165 7.46,2.065 34.4,-3.602"
       id="path16652"
       style="fill:#ffffff;fill-opacity:1;fill-rule:nonzero;stroke:none;display:inline" />
    <path
       d="m 208.32,72.751 c 0.67,-0.23 1.32,-0.53 2,-0.98 3.03,-2.241 5.56,-5.145 7.75,-8.201 0,0 -8.99,11.451 -15.06,8.571 -0.26,-0.12 -0.52,-0.28 -0.75,-0.45 l 0,0 c 0.13,0.17 0.28,0.38 0.49,0.55 l 0.13,0.13 c 0.74,0.53 1.9,0.95 3.36,0.87 -0.11,0.294 -0.21,0.469 -0.3,0.679 -2.41,5.244 -8.88,6.676 -8.88,6.676 -2.09,5.215 -19.58,10.956 -34.47,14.767 7.81,-1.677 34.02,-7.825 36.1,-13.435 0,0 6.33,-1.357 9.63,-9.177 z"
       id="path16656-0"
       style="fill:#ffffff;fill-opacity:1;fill-rule:nonzero;stroke:none;display:inline" />
    <path
       d="m 198.75,61.74 c 0.29,-0.28 0.47,-0.46 0.47,-0.46 0,0 -9.51,8.35 -12.66,4.54 -0.13,-0.14 -0.18,-0.206 -0.28,-0.386 0.77,-0.137 1.55,-0.472 2.18,-0.752 2.74,-1.51 4.5,-3.122 5.36,-3.962 0.39,-0.39 0.59,-0.62 0.59,-0.62 0,0 -7.79,6.95 -11.96,3.47 l 0,0 0,0 -0.1,-0.109 c 0,0.06 0,0.126 0,0.189 0.2,0.699 1.09,2.27 3.85,1.802 0.12,0.318 0.23,0.49 0.31,0.641 0.47,0.92 1.49,2.24 4.1,1.596 3.94,-0.97 7.04,-4.919 8.14,-5.949 z"
       id="path16660-9"
       style="fill:#ffffff;fill-opacity:1;fill-rule:nonzero;stroke:none;display:inline" />
    <path
       d="m 196.1,70.61 c 0.79,1.141 2.75,2.941 6.34,0.951 0.45,-0.27 1.09,-0.639 1.61,-1.03 3.49,-2.63 5.63,-5.258 6.62,-6.528 0.37,-0.49 0.48,-0.701 0.48,-0.701 0,0 -10.16,10.899 -14.66,7.449 -0.1,-0.101 -0.21,-0.162 -0.28,-0.221 -0.18,-0.165 -0.33,-0.38 -0.49,-0.61 l 0,0 c 0.33,-0.12 1.03,-0.42 2.07,-1.04 3.15,-1.87 6.35,-4.9 7.54,-6.05 0.29,-0.31 0.47,-0.49 0.47,-0.49 0,0 -0.24,0.22 -0.65,0.57 -0.13,0.13 -0.34,0.27 -0.66,0.54 -2.99,2.49 -10.46,8.037 -13.59,4.827 -0.21,-0.213 -0.36,-0.457 -0.47,-0.637 0.1,0.297 0.14,0.53 0.27,0.77 0.57,1.041 2.39,2.494 5.01,1.51 0,0 0.17,0.417 0.39,0.69 z"
       id="path16664-4"
       style="fill:#ffffff;fill-opacity:1;fill-rule:nonzero;stroke:none;display:inline" />
  </g>
</svg>
