<svg xmlns="http://www.w3.org/2000/svg" xmlns:xlink="http://www.w3.org/1999/xlink" version="1.1" id="Your_Icon" x="0px" y="0px" width="100px" height="100px" viewBox="5.0 -10.0 100.0 135.0" enable-background="new 0 0 100 100" xml:space="preserve">
<path d="M50,46c7.749,0,14.21,6.309,15.683,13.12l23.321-23.322C80.567,23.255,66.254,15,50,15s-30.568,8.256-39.004,20.798  l23.321,23.321C35.791,52.309,42.251,46,50,46z"/>
<path d="M89.563,36.653L65.882,60.335C65.953,60.891,66,61.446,66,62c0,1.104-0.896,2-2,2c-0.497,0-0.945-0.188-1.295-0.487  l-8.386,8.386c-0.438,0.44-0.918,0.919-1.428,1.35C53.574,73.966,54,74.932,54,76c0,2.209-1.791,4-4,4s-4-1.791-4-4  c0-1.069,0.426-2.035,1.109-2.753c-0.508-0.43-0.985-0.905-1.422-1.344l-8.392-8.392C36.946,63.812,36.497,64,36,64  c-1.104,0-2-0.896-2-2c0-0.555,0.047-1.11,0.118-1.666L10.437,36.653c-2.039,3.178-3.712,6.613-4.946,10.253l40.387,40.387  c2.277,2.275,5.968,2.275,8.245,0l40.386-40.387C93.275,43.266,91.603,39.831,89.563,36.653z"/>
<path id="_x3C_Path_x3E_" d="M52.875,73.583h-2.25v0.521h-1.25v-0.521h-2.25v4.001h1.75v1.854h2.25v-1.854h1.75V73.583z   M47.625,77.084v-3.001h1.25v0.021v2.98H47.625z M50.625,78.938h-1.25v-1.354v-2.98h1.25v2.98V78.938z M52.375,77.084h-1.25v-2.98  v-0.021h1.25V77.084z"/>
<rect x="49" y="47" transform="matrix(0.7071 -0.7071 0.7071 0.7071 -19.2965 49.4142)" width="2" height="2"/>
<rect x="63" y="60.984" transform="matrix(0.7071 -0.7071 0.7071 0.7071 -25.0844 63.4096)" width="2" height="2"/>
<rect x="35" y="60.984" transform="matrix(0.7071 -0.7071 0.7071 0.7071 -33.2854 43.6106)" width="2" height="2"/>
<path id="_x3C_Path_x3E__1_" d="M62.586,60.586L51.414,49.414C51.052,49.776,50.552,50,50,50s-1.052-0.224-1.414-0.586  L37.414,60.586C37.776,60.947,38,61.447,38,62c0,0.238-0.049,0.465-0.125,0.677l8.521,8.521c0.447,0.448,0.968,0.965,1.515,1.406  C48.52,72.228,49.231,72,50,72c0.769,0,1.481,0.228,2.091,0.604c0.548-0.443,1.071-0.962,1.52-1.412l8.515-8.516  C62.049,62.465,62,62.239,62,62C62,61.447,62.224,60.947,62.586,60.586z M50,66c-1.104,0-2-0.896-2-2s0.896-2,2-2s2,0.896,2,2  S51.104,66,50,66z"/>
<rect x="49" y="63.5" width="2" height="0.5"/></svg>